<mxfile host="Electron" modified="2023-09-21T20:24:37.996Z" agent="Mozilla/5.0 (Windows NT 10.0; Win64; x64) AppleWebKit/537.36 (KHTML, like Gecko) draw.io/21.6.8 Chrome/114.0.5735.289 Electron/25.5.0 Safari/537.36" etag="UnXANEKBzr4gjbA-fKX1" version="21.6.8" type="device">
  <diagram name="Page-1" id="ByE_iyZ5ZZ_60SZ4c1Ou">
    <mxGraphModel dx="2908" dy="80" grid="1" gridSize="10" guides="1" tooltips="1" connect="1" arrows="1" fold="1" page="1" pageScale="1" pageWidth="850" pageHeight="1100" math="0" shadow="0">
      <root>
        <mxCell id="0" />
        <mxCell id="1" parent="0" />
        <mxCell id="NUd7cM4LP3BwAFaoa_ZL-1" value="" style="rounded=0;whiteSpace=wrap;html=1;" parent="1" vertex="1">
          <mxGeometry x="30" y="1230" width="770" height="1510" as="geometry" />
        </mxCell>
        <mxCell id="Z8yj8QEelL6ya9aBNg96-2" style="rounded=0;orthogonalLoop=1;jettySize=auto;html=1;entryX=0;entryY=0.5;entryDx=0;entryDy=0;exitX=1;exitY=0.3333333333333333;exitDx=0;exitDy=0;exitPerimeter=0;" parent="1" source="NUd7cM4LP3BwAFaoa_ZL-6" target="NUd7cM4LP3BwAFaoa_ZL-36" edge="1">
          <mxGeometry relative="1" as="geometry" />
        </mxCell>
        <mxCell id="Z8yj8QEelL6ya9aBNg96-4" style="rounded=0;orthogonalLoop=1;jettySize=auto;html=1;entryX=0;entryY=0.5;entryDx=0;entryDy=0;exitX=1;exitY=0.3333333333333333;exitDx=0;exitDy=0;exitPerimeter=0;" parent="1" source="NUd7cM4LP3BwAFaoa_ZL-6" target="Z8yj8QEelL6ya9aBNg96-3" edge="1">
          <mxGeometry relative="1" as="geometry" />
        </mxCell>
        <mxCell id="Z8yj8QEelL6ya9aBNg96-6" style="edgeStyle=none;shape=connector;rounded=0;orthogonalLoop=1;jettySize=auto;html=1;entryX=0;entryY=0.5;entryDx=0;entryDy=0;labelBackgroundColor=default;strokeColor=default;fontFamily=Helvetica;fontSize=11;fontColor=default;endArrow=classic;exitX=1;exitY=0.3333333333333333;exitDx=0;exitDy=0;exitPerimeter=0;" parent="1" source="NUd7cM4LP3BwAFaoa_ZL-6" edge="1">
          <mxGeometry relative="1" as="geometry">
            <mxPoint x="350" y="1520" as="targetPoint" />
          </mxGeometry>
        </mxCell>
        <mxCell id="Z8yj8QEelL6ya9aBNg96-9" style="edgeStyle=none;shape=connector;rounded=0;orthogonalLoop=1;jettySize=auto;html=1;entryX=0;entryY=0.5;entryDx=0;entryDy=0;labelBackgroundColor=default;strokeColor=default;fontFamily=Helvetica;fontSize=11;fontColor=default;endArrow=classic;exitX=1;exitY=0.3333333333333333;exitDx=0;exitDy=0;exitPerimeter=0;" parent="1" source="NUd7cM4LP3BwAFaoa_ZL-6" target="Z8yj8QEelL6ya9aBNg96-8" edge="1">
          <mxGeometry relative="1" as="geometry" />
        </mxCell>
        <mxCell id="Z8yj8QEelL6ya9aBNg96-11" style="edgeStyle=none;shape=connector;rounded=0;orthogonalLoop=1;jettySize=auto;html=1;entryX=0;entryY=0.5;entryDx=0;entryDy=0;labelBackgroundColor=default;strokeColor=default;fontFamily=Helvetica;fontSize=11;fontColor=default;endArrow=classic;" parent="1" source="NUd7cM4LP3BwAFaoa_ZL-6" target="Z8yj8QEelL6ya9aBNg96-10" edge="1">
          <mxGeometry relative="1" as="geometry" />
        </mxCell>
        <mxCell id="Z8yj8QEelL6ya9aBNg96-14" style="edgeStyle=none;shape=connector;rounded=0;orthogonalLoop=1;jettySize=auto;html=1;entryX=0;entryY=0.5;entryDx=0;entryDy=0;labelBackgroundColor=default;strokeColor=default;fontFamily=Helvetica;fontSize=11;fontColor=default;endArrow=classic;exitX=1;exitY=0.3333333333333333;exitDx=0;exitDy=0;exitPerimeter=0;" parent="1" source="NUd7cM4LP3BwAFaoa_ZL-6" target="Z8yj8QEelL6ya9aBNg96-13" edge="1">
          <mxGeometry relative="1" as="geometry" />
        </mxCell>
        <mxCell id="Z8yj8QEelL6ya9aBNg96-16" style="edgeStyle=none;shape=connector;rounded=0;orthogonalLoop=1;jettySize=auto;html=1;entryX=0;entryY=0.5;entryDx=0;entryDy=0;labelBackgroundColor=default;strokeColor=default;fontFamily=Helvetica;fontSize=11;fontColor=default;endArrow=classic;" parent="1" target="Z8yj8QEelL6ya9aBNg96-12" edge="1">
          <mxGeometry relative="1" as="geometry">
            <mxPoint x="-210" y="2100" as="sourcePoint" />
          </mxGeometry>
        </mxCell>
        <mxCell id="Z8yj8QEelL6ya9aBNg96-17" style="edgeStyle=none;shape=connector;rounded=0;orthogonalLoop=1;jettySize=auto;html=1;entryX=0;entryY=0.5;entryDx=0;entryDy=0;labelBackgroundColor=default;strokeColor=default;fontFamily=Helvetica;fontSize=11;fontColor=default;endArrow=classic;" parent="1" target="Z8yj8QEelL6ya9aBNg96-15" edge="1">
          <mxGeometry relative="1" as="geometry">
            <mxPoint x="-210" y="2100" as="sourcePoint" />
          </mxGeometry>
        </mxCell>
        <mxCell id="Z8yj8QEelL6ya9aBNg96-20" style="edgeStyle=none;shape=connector;rounded=0;orthogonalLoop=1;jettySize=auto;html=1;entryX=0;entryY=0.5;entryDx=0;entryDy=0;labelBackgroundColor=default;strokeColor=default;fontFamily=Helvetica;fontSize=11;fontColor=default;endArrow=classic;" parent="1" target="Z8yj8QEelL6ya9aBNg96-19" edge="1">
          <mxGeometry relative="1" as="geometry">
            <mxPoint x="-210" y="2100" as="sourcePoint" />
          </mxGeometry>
        </mxCell>
        <mxCell id="Z8yj8QEelL6ya9aBNg96-22" style="edgeStyle=none;shape=connector;rounded=0;orthogonalLoop=1;jettySize=auto;html=1;entryX=0;entryY=0.5;entryDx=0;entryDy=0;labelBackgroundColor=default;strokeColor=default;fontFamily=Helvetica;fontSize=11;fontColor=default;endArrow=classic;exitX=1;exitY=0.3333333333333333;exitDx=0;exitDy=0;exitPerimeter=0;" parent="1" source="NUd7cM4LP3BwAFaoa_ZL-6" edge="1">
          <mxGeometry relative="1" as="geometry">
            <mxPoint x="355" y="2240" as="targetPoint" />
          </mxGeometry>
        </mxCell>
        <mxCell id="Z8yj8QEelL6ya9aBNg96-28" style="edgeStyle=none;shape=connector;rounded=0;orthogonalLoop=1;jettySize=auto;html=1;entryX=0;entryY=0.5;entryDx=0;entryDy=0;labelBackgroundColor=default;strokeColor=default;fontFamily=Helvetica;fontSize=11;fontColor=default;endArrow=classic;exitX=1;exitY=0.3333333333333333;exitDx=0;exitDy=0;exitPerimeter=0;" parent="1" source="NUd7cM4LP3BwAFaoa_ZL-6" target="Z8yj8QEelL6ya9aBNg96-24" edge="1">
          <mxGeometry relative="1" as="geometry" />
        </mxCell>
        <mxCell id="Z8yj8QEelL6ya9aBNg96-29" style="edgeStyle=none;shape=connector;rounded=0;orthogonalLoop=1;jettySize=auto;html=1;entryX=0;entryY=0.5;entryDx=0;entryDy=0;labelBackgroundColor=default;strokeColor=default;fontFamily=Helvetica;fontSize=11;fontColor=default;endArrow=classic;exitX=1;exitY=0.3333333333333333;exitDx=0;exitDy=0;exitPerimeter=0;" parent="1" source="NUd7cM4LP3BwAFaoa_ZL-6" target="Z8yj8QEelL6ya9aBNg96-25" edge="1">
          <mxGeometry relative="1" as="geometry">
            <mxPoint x="-210" y="2119" as="sourcePoint" />
          </mxGeometry>
        </mxCell>
        <mxCell id="Z8yj8QEelL6ya9aBNg96-30" style="edgeStyle=none;shape=connector;rounded=0;orthogonalLoop=1;jettySize=auto;html=1;entryX=0;entryY=0.5;entryDx=0;entryDy=0;labelBackgroundColor=default;strokeColor=default;fontFamily=Helvetica;fontSize=11;fontColor=default;endArrow=classic;exitX=1;exitY=0.3333333333333333;exitDx=0;exitDy=0;exitPerimeter=0;" parent="1" source="NUd7cM4LP3BwAFaoa_ZL-6" target="Z8yj8QEelL6ya9aBNg96-26" edge="1">
          <mxGeometry relative="1" as="geometry" />
        </mxCell>
        <mxCell id="Z8yj8QEelL6ya9aBNg96-31" style="edgeStyle=none;shape=connector;rounded=0;orthogonalLoop=1;jettySize=auto;html=1;entryX=0;entryY=0.5;entryDx=0;entryDy=0;labelBackgroundColor=default;strokeColor=default;fontFamily=Helvetica;fontSize=11;fontColor=default;endArrow=classic;exitX=1;exitY=0.3333333333333333;exitDx=0;exitDy=0;exitPerimeter=0;" parent="1" source="NUd7cM4LP3BwAFaoa_ZL-6" target="Z8yj8QEelL6ya9aBNg96-27" edge="1">
          <mxGeometry relative="1" as="geometry" />
        </mxCell>
        <mxCell id="NUd7cM4LP3BwAFaoa_ZL-6" value="Student" style="shape=umlActor;verticalLabelPosition=bottom;verticalAlign=top;html=1;outlineConnect=0;" parent="1" vertex="1">
          <mxGeometry x="-240" y="2080" width="30" height="60" as="geometry" />
        </mxCell>
        <mxCell id="Z8yj8QEelL6ya9aBNg96-33" style="edgeStyle=none;shape=connector;rounded=0;orthogonalLoop=1;jettySize=auto;html=1;entryX=0;entryY=0.3333333333333333;entryDx=0;entryDy=0;entryPerimeter=0;labelBackgroundColor=default;strokeColor=default;fontFamily=Helvetica;fontSize=11;fontColor=default;endArrow=classic;exitX=1;exitY=0.5;exitDx=0;exitDy=0;" parent="1" source="NUd7cM4LP3BwAFaoa_ZL-36" target="Z8yj8QEelL6ya9aBNg96-32" edge="1">
          <mxGeometry relative="1" as="geometry" />
        </mxCell>
        <mxCell id="NUd7cM4LP3BwAFaoa_ZL-36" value="Account creation" style="ellipse;whiteSpace=wrap;html=1;fontFamily=Helvetica;fontSize=11;fontColor=default;" parent="1" vertex="1">
          <mxGeometry x="355" y="1260" width="120" height="80" as="geometry" />
        </mxCell>
        <mxCell id="Z8yj8QEelL6ya9aBNg96-34" style="edgeStyle=none;shape=connector;rounded=0;orthogonalLoop=1;jettySize=auto;html=1;entryX=0;entryY=0.3333333333333333;entryDx=0;entryDy=0;entryPerimeter=0;labelBackgroundColor=default;strokeColor=default;fontFamily=Helvetica;fontSize=11;fontColor=default;endArrow=classic;exitX=1;exitY=0.5;exitDx=0;exitDy=0;" parent="1" source="Z8yj8QEelL6ya9aBNg96-3" target="Z8yj8QEelL6ya9aBNg96-32" edge="1">
          <mxGeometry relative="1" as="geometry" />
        </mxCell>
        <mxCell id="Z8yj8QEelL6ya9aBNg96-3" value="Account deletion" style="ellipse;whiteSpace=wrap;html=1;fontFamily=Helvetica;fontSize=11;fontColor=default;" parent="1" vertex="1">
          <mxGeometry x="355" y="1370" width="120" height="80" as="geometry" />
        </mxCell>
        <mxCell id="Z8yj8QEelL6ya9aBNg96-35" style="edgeStyle=none;shape=connector;rounded=0;orthogonalLoop=1;jettySize=auto;html=1;exitX=1;exitY=0.5;exitDx=0;exitDy=0;entryX=0;entryY=0.3333333333333333;entryDx=0;entryDy=0;entryPerimeter=0;labelBackgroundColor=default;strokeColor=default;fontFamily=Helvetica;fontSize=11;fontColor=default;endArrow=classic;" parent="1" source="Z8yj8QEelL6ya9aBNg96-7" target="Z8yj8QEelL6ya9aBNg96-32" edge="1">
          <mxGeometry relative="1" as="geometry" />
        </mxCell>
        <mxCell id="Z8yj8QEelL6ya9aBNg96-7" value="Lookup friends" style="ellipse;whiteSpace=wrap;html=1;fontFamily=Helvetica;fontSize=11;fontColor=default;" parent="1" vertex="1">
          <mxGeometry x="350" y="1480" width="120" height="80" as="geometry" />
        </mxCell>
        <mxCell id="Z8yj8QEelL6ya9aBNg96-36" style="edgeStyle=none;shape=connector;rounded=0;orthogonalLoop=1;jettySize=auto;html=1;exitX=1;exitY=0.5;exitDx=0;exitDy=0;entryX=0;entryY=0.3333333333333333;entryDx=0;entryDy=0;entryPerimeter=0;labelBackgroundColor=default;strokeColor=default;fontFamily=Helvetica;fontSize=11;fontColor=default;endArrow=classic;" parent="1" source="Z8yj8QEelL6ya9aBNg96-8" target="Z8yj8QEelL6ya9aBNg96-32" edge="1">
          <mxGeometry relative="1" as="geometry" />
        </mxCell>
        <mxCell id="Z8yj8QEelL6ya9aBNg96-8" value="Add/remove friends" style="ellipse;whiteSpace=wrap;html=1;fontFamily=Helvetica;fontSize=11;fontColor=default;" parent="1" vertex="1">
          <mxGeometry x="355" y="1590" width="120" height="80" as="geometry" />
        </mxCell>
        <mxCell id="Z8yj8QEelL6ya9aBNg96-37" style="edgeStyle=none;shape=connector;rounded=0;orthogonalLoop=1;jettySize=auto;html=1;exitX=1;exitY=0.5;exitDx=0;exitDy=0;entryX=0;entryY=0.3333333333333333;entryDx=0;entryDy=0;entryPerimeter=0;labelBackgroundColor=default;strokeColor=default;fontFamily=Helvetica;fontSize=11;fontColor=default;endArrow=classic;" parent="1" source="Z8yj8QEelL6ya9aBNg96-10" target="Z8yj8QEelL6ya9aBNg96-32" edge="1">
          <mxGeometry relative="1" as="geometry" />
        </mxCell>
        <mxCell id="Z8yj8QEelL6ya9aBNg96-10" value="Set privacy and security settings" style="ellipse;whiteSpace=wrap;html=1;fontFamily=Helvetica;fontSize=11;fontColor=default;" parent="1" vertex="1">
          <mxGeometry x="355" y="1690" width="120" height="80" as="geometry" />
        </mxCell>
        <mxCell id="Z8yj8QEelL6ya9aBNg96-38" style="edgeStyle=none;shape=connector;rounded=0;orthogonalLoop=1;jettySize=auto;html=1;exitX=1;exitY=0.5;exitDx=0;exitDy=0;entryX=0;entryY=0.3333333333333333;entryDx=0;entryDy=0;entryPerimeter=0;labelBackgroundColor=default;strokeColor=default;fontFamily=Helvetica;fontSize=11;fontColor=default;endArrow=classic;" parent="1" source="Z8yj8QEelL6ya9aBNg96-12" target="Z8yj8QEelL6ya9aBNg96-32" edge="1">
          <mxGeometry relative="1" as="geometry" />
        </mxCell>
        <mxCell id="Z8yj8QEelL6ya9aBNg96-12" value="Message friends" style="ellipse;whiteSpace=wrap;html=1;fontFamily=Helvetica;fontSize=11;fontColor=default;" parent="1" vertex="1">
          <mxGeometry x="350" y="1790" width="120" height="80" as="geometry" />
        </mxCell>
        <mxCell id="Z8yj8QEelL6ya9aBNg96-39" style="edgeStyle=none;shape=connector;rounded=0;orthogonalLoop=1;jettySize=auto;html=1;exitX=1;exitY=0.5;exitDx=0;exitDy=0;entryX=0;entryY=0.3333333333333333;entryDx=0;entryDy=0;entryPerimeter=0;labelBackgroundColor=default;strokeColor=default;fontFamily=Helvetica;fontSize=11;fontColor=default;endArrow=classic;" parent="1" source="Z8yj8QEelL6ya9aBNg96-13" target="Z8yj8QEelL6ya9aBNg96-32" edge="1">
          <mxGeometry relative="1" as="geometry" />
        </mxCell>
        <mxCell id="Z8yj8QEelL6ya9aBNg96-13" value="Voice call, video call friends" style="ellipse;whiteSpace=wrap;html=1;fontFamily=Helvetica;fontSize=11;fontColor=default;" parent="1" vertex="1">
          <mxGeometry x="350" y="1890" width="120" height="80" as="geometry" />
        </mxCell>
        <mxCell id="Z8yj8QEelL6ya9aBNg96-40" style="edgeStyle=none;shape=connector;rounded=0;orthogonalLoop=1;jettySize=auto;html=1;exitX=1;exitY=0.5;exitDx=0;exitDy=0;entryX=0;entryY=0.3333333333333333;entryDx=0;entryDy=0;entryPerimeter=0;labelBackgroundColor=default;strokeColor=default;fontFamily=Helvetica;fontSize=11;fontColor=default;endArrow=classic;" parent="1" source="Z8yj8QEelL6ya9aBNg96-15" target="Z8yj8QEelL6ya9aBNg96-32" edge="1">
          <mxGeometry relative="1" as="geometry" />
        </mxCell>
        <mxCell id="Z8yj8QEelL6ya9aBNg96-15" value="Randomize add friend" style="ellipse;whiteSpace=wrap;html=1;fontFamily=Helvetica;fontSize=11;fontColor=default;" parent="1" vertex="1">
          <mxGeometry x="350" y="2000" width="120" height="80" as="geometry" />
        </mxCell>
        <mxCell id="Z8yj8QEelL6ya9aBNg96-41" style="edgeStyle=none;shape=connector;rounded=0;orthogonalLoop=1;jettySize=auto;html=1;exitX=1;exitY=0.5;exitDx=0;exitDy=0;entryX=0;entryY=0.3333333333333333;entryDx=0;entryDy=0;entryPerimeter=0;labelBackgroundColor=default;strokeColor=default;fontFamily=Helvetica;fontSize=11;fontColor=default;endArrow=classic;" parent="1" source="Z8yj8QEelL6ya9aBNg96-19" target="Z8yj8QEelL6ya9aBNg96-32" edge="1">
          <mxGeometry relative="1" as="geometry" />
        </mxCell>
        <mxCell id="Z8yj8QEelL6ya9aBNg96-19" value="Set preferences and filters (distance, language, activities, group or individual)" style="ellipse;whiteSpace=wrap;html=1;fontFamily=Helvetica;fontSize=11;fontColor=default;" parent="1" vertex="1">
          <mxGeometry x="350" y="2100" width="120" height="80" as="geometry" />
        </mxCell>
        <mxCell id="Z8yj8QEelL6ya9aBNg96-42" style="edgeStyle=none;shape=connector;rounded=0;orthogonalLoop=1;jettySize=auto;html=1;exitX=1;exitY=0.5;exitDx=0;exitDy=0;entryX=0;entryY=0.3333333333333333;entryDx=0;entryDy=0;entryPerimeter=0;labelBackgroundColor=default;strokeColor=default;fontFamily=Helvetica;fontSize=11;fontColor=default;endArrow=classic;" parent="1" source="Z8yj8QEelL6ya9aBNg96-23" target="Z8yj8QEelL6ya9aBNg96-32" edge="1">
          <mxGeometry relative="1" as="geometry" />
        </mxCell>
        <mxCell id="Z8yj8QEelL6ya9aBNg96-23" value="Create group chat, add/remove people" style="ellipse;whiteSpace=wrap;html=1;fontFamily=Helvetica;fontSize=11;fontColor=default;" parent="1" vertex="1">
          <mxGeometry x="355" y="2200" width="120" height="80" as="geometry" />
        </mxCell>
        <mxCell id="Z8yj8QEelL6ya9aBNg96-43" style="edgeStyle=none;shape=connector;rounded=0;orthogonalLoop=1;jettySize=auto;html=1;exitX=1;exitY=0.5;exitDx=0;exitDy=0;labelBackgroundColor=default;strokeColor=default;fontFamily=Helvetica;fontSize=11;fontColor=default;endArrow=classic;" parent="1" source="Z8yj8QEelL6ya9aBNg96-24" edge="1">
          <mxGeometry relative="1" as="geometry">
            <mxPoint x="950" y="2100" as="targetPoint" />
          </mxGeometry>
        </mxCell>
        <mxCell id="Z8yj8QEelL6ya9aBNg96-24" value="Add pictures to profile and tag people and locations" style="ellipse;whiteSpace=wrap;html=1;fontFamily=Helvetica;fontSize=11;fontColor=default;" parent="1" vertex="1">
          <mxGeometry x="355" y="2300" width="120" height="80" as="geometry" />
        </mxCell>
        <mxCell id="Z8yj8QEelL6ya9aBNg96-44" style="edgeStyle=none;shape=connector;rounded=0;orthogonalLoop=1;jettySize=auto;html=1;exitX=1;exitY=0.5;exitDx=0;exitDy=0;entryX=0;entryY=0.3333333333333333;entryDx=0;entryDy=0;entryPerimeter=0;labelBackgroundColor=default;strokeColor=default;fontFamily=Helvetica;fontSize=11;fontColor=default;endArrow=classic;" parent="1" source="Z8yj8QEelL6ya9aBNg96-25" target="Z8yj8QEelL6ya9aBNg96-32" edge="1">
          <mxGeometry relative="1" as="geometry" />
        </mxCell>
        <mxCell id="Z8yj8QEelL6ya9aBNg96-25" value="Comment on other people&#39;s profiles" style="ellipse;whiteSpace=wrap;html=1;fontFamily=Helvetica;fontSize=11;fontColor=default;" parent="1" vertex="1">
          <mxGeometry x="355" y="2400" width="120" height="80" as="geometry" />
        </mxCell>
        <mxCell id="Z8yj8QEelL6ya9aBNg96-45" style="edgeStyle=none;shape=connector;rounded=0;orthogonalLoop=1;jettySize=auto;html=1;exitX=1;exitY=0.5;exitDx=0;exitDy=0;labelBackgroundColor=default;strokeColor=default;fontFamily=Helvetica;fontSize=11;fontColor=default;endArrow=classic;" parent="1" source="Z8yj8QEelL6ya9aBNg96-26" edge="1">
          <mxGeometry relative="1" as="geometry">
            <mxPoint x="950" y="2100" as="targetPoint" />
          </mxGeometry>
        </mxCell>
        <mxCell id="Z8yj8QEelL6ya9aBNg96-26" value="View and interact with verification system" style="ellipse;whiteSpace=wrap;html=1;fontFamily=Helvetica;fontSize=11;fontColor=default;" parent="1" vertex="1">
          <mxGeometry x="355" y="2500" width="120" height="80" as="geometry" />
        </mxCell>
        <mxCell id="Z8yj8QEelL6ya9aBNg96-46" style="edgeStyle=none;shape=connector;rounded=0;orthogonalLoop=1;jettySize=auto;html=1;exitX=1;exitY=0.5;exitDx=0;exitDy=0;entryX=0;entryY=0.3333333333333333;entryDx=0;entryDy=0;entryPerimeter=0;labelBackgroundColor=default;strokeColor=default;fontFamily=Helvetica;fontSize=11;fontColor=default;endArrow=classic;" parent="1" source="Z8yj8QEelL6ya9aBNg96-27" target="Z8yj8QEelL6ya9aBNg96-32" edge="1">
          <mxGeometry relative="1" as="geometry" />
        </mxCell>
        <mxCell id="Z8yj8QEelL6ya9aBNg96-27" value="Change language of app" style="ellipse;whiteSpace=wrap;html=1;fontFamily=Helvetica;fontSize=11;fontColor=default;" parent="1" vertex="1">
          <mxGeometry x="355" y="2600" width="120" height="80" as="geometry" />
        </mxCell>
        <mxCell id="Z8yj8QEelL6ya9aBNg96-32" value="SBRU Social Networking Subsystem" style="shape=umlActor;verticalLabelPosition=bottom;verticalAlign=top;html=1;outlineConnect=0;" parent="1" vertex="1">
          <mxGeometry x="950" y="2080" width="30" height="60" as="geometry" />
        </mxCell>
      </root>
    </mxGraphModel>
  </diagram>
</mxfile>
